<?xml version="1.0" encoding="utf-8"?>
<!-- Generator: Adobe Illustrator 22.0.1, SVG Export Plug-In . SVG Version: 6.00 Build 0)  -->
<svg version="1.1" id="Layer_1" xmlns="http://www.w3.org/2000/svg" xmlns:xlink="http://www.w3.org/1999/xlink" x="0px" y="0px"
	 viewBox="0 0 332 293.3" style="enable-background:new 0 0 332 293.3;" xml:space="preserve">
<style type="text/css">
	.st0{fill:#FFFFFF;}
</style>
<g>
	<path class="st0" d="M74.7,59.8c26.6-6.1,82.5,13,82.5,26.6c0-13.6,55.3-32.7,82.5-26.6c4.8,1.4,8.2,6.1,8.2,10.9v21.1
		c10.9,0,17.1,1.4,17.1,11.6v102.3c0,4.8-4.1,8.9-9.6,8.9h-34.8c-25.2,0-36.8,7.5-50.5,15.7c-3.4,2-13,0.7-13-1.4
		c0,2-10.2,3.4-13.6,1.4c-13.6-8.2-25.2-15.7-50.5-15.7H58.3c-5.5,0-9.6-4.1-9.6-8.9l0.7-102.3c0-10.2,5.5-11.6,16.4-11.6V70.7
		C65.8,65.9,69.9,61.1,74.7,59.8z M157.2,199.6c-7.5,0-6.8-3.4-6.8-7.5V96.6c0-2-2-3.4-3.4-4.8c-18.4-15-40.2-21.1-64.8-19.8
		c-2,0-3.4,2-3.4,3.4v111.2c0,2,1.4,3.4,3.4,3.4c25.9,0.7,53.9,7.5,75,24.6c20.5-17.1,48.4-23.9,75-24.6c1.4,0,3.4-1.4,3.4-3.4V75.5
		c0-1.4-2-3.4-3.4-3.4c-25.2-1.4-47.1,4.8-65.5,19.8c-1.4,1.4-2.7,2.7-2.7,4.8v95.5C164.1,196.2,164.1,199.6,157.2,199.6z"/>
</g>
</svg>
