<?xml version="1.0" encoding="utf-8"?>
<!-- Generator: Adobe Illustrator 22.0.1, SVG Export Plug-In . SVG Version: 6.00 Build 0)  -->
<svg version="1.1" id="Layer_1" xmlns="http://www.w3.org/2000/svg" xmlns:xlink="http://www.w3.org/1999/xlink" x="0px" y="0px"
	 viewBox="0 0 95.5 90.3" style="enable-background:new 0 0 95.5 90.3;" xml:space="preserve">
<style type="text/css">
	.st0{fill:#FFFFFF;}
</style>
<path class="st0" d="M67.2,25.9c-5-4.9-11.5-7.7-18.5-7.7S35.2,21,30.3,25.9c-4.9,5-7.7,11.5-7.7,18.5s2.8,13.6,7.7,18.5
	s11.5,7.7,18.5,7.7s13.6-2.8,18.5-7.7c5-4.9,7.7-11.5,7.7-18.5S72.2,30.8,67.2,25.9z M48.7,67.3c-12.6,0-22.9-10.3-22.9-22.9
	s10.3-22.9,22.9-22.9s22.9,10.3,22.9,22.9S61.3,67.3,48.7,67.3z"/>
<path class="st0" d="M38.9,32c1.1-0.4,2.4-0.6,3.6-0.7c2.1-0.1,4.2,0.2,6.2,0.9c1.4,0.4,2.1-1.7,0.6-2.2c-4-1.3-8.9-1.6-12.8,0.5
	c-1.3,0.6-0.1,2.7,1.1,2c0.1-0.1,0.3-0.1,0.4-0.2c0.1,0,0.2-0.1,0.3-0.1C38.4,32.2,38.7,32.1,38.9,32z"/>
<path class="st0" d="M65.6,30.6c-3.8-2.1-8.8-1.9-12.8-0.5c-1.3,0.4-0.8,2.7,0.6,2.2c2-0.6,4.1-1,6.2-0.9c1.2,0.1,2.4,0.3,3.6,0.7
	c0.2,0.1,0.4,0.1,0.6,0.2c0.1,0,0.2,0.1,0.3,0.1c0.1,0.1,0.3,0.1,0.4,0.2C65.8,33.2,66.8,31.4,65.6,30.6z"/>
<path class="st0" d="M52.8,51.4c-2.6-0.5-5.3,0.1-7.8,0.8c-0.6,0.2-1.3,0.4-2,0.6c-1.3,0.4-0.8,2.7,0.6,2.2c2-0.6,4.1-1.2,6.1-1.4
	c0.6-0.1,1.3-0.1,2.1,0c0.6,0.1,1.2,0.3,1.7,0.5c0.1,0.1,0.2,0.1,0.3,0.2l0,0c0.1,0.1,0.3,0.3,0.4,0.4c-0.3-0.3-0.1-0.1,0,0.1
	l0.1,0.1c0-0.1-0.1-0.1-0.1-0.3c0.2,0.6,0.8,0.9,1.3,0.8c0.5-0.1,1-0.8,0.8-1.4C55.8,52.6,54.3,51.8,52.8,51.4z"/>
<path class="st0" d="M54.4,55C54.4,55.1,54.4,55,54.4,55L54.4,55z"/>
<path class="st0" d="M63.5,41c-3.3-0.5-6.6-0.4-9.9,0.2c-0.7,0.1-0.4,1.2,0.3,1.1c3-0.5,6.4-0.6,9.3-0.2
	C63.8,42.2,64.1,41.1,63.5,41z"/>
<path class="st0" d="M63.2,35.6c-3.3-0.5-6.6-0.4-9.9,0.2c-0.7,0.1-0.4,1.2,0.3,1.1c0.7-0.1,1.4-0.2,2.2-0.3
	c-0.1,0.1-0.1,0.2-0.1,0.3c0,2,1.6,3.5,3.5,3.5s3.4-1.6,3.4-3.5c0-0.1,0-0.1,0-0.2c0.1,0,0.1,0,0.3,0C63.6,36.7,63.9,35.6,63.2,35.6
	z"/>
<path class="st0" d="M48.4,41.3c-3.3-0.6-6.6-0.6-9.9-0.2c-0.7,0.1-0.4,1.2,0.3,1.1c2.9-0.4,6.3-0.4,9.3,0.2
	C48.9,42.5,49.2,41.4,48.4,41.3z"/>
<path class="st0" d="M48.7,35.8c-0.6-0.1-1.2-0.2-1.9-0.2c-0.2,0-0.4-0.1-0.6-0.1c-2.5-0.3-5.1-0.3-7.6,0.1
	c-0.7,0.1-0.4,1.2,0.3,1.1c0.9-0.1,2.1-0.3,3.1-0.3C42,36.5,42,36.7,42,36.8c0,2,1.6,3.4,3.4,3.4c2,0,3.5-1.6,3.5-3.4
	c0-0.1,0-0.1-0.1-0.2C49.2,36.4,49.1,35.9,48.7,35.8z"/>
</svg>
