<?xml version="1.0" encoding="utf-8"?>
<!-- Generator: Adobe Illustrator 19.0.0, SVG Export Plug-In . SVG Version: 6.00 Build 0)  -->
<svg version="1.1" id="Layer_1" xmlns="http://www.w3.org/2000/svg" xmlns:xlink="http://www.w3.org/1999/xlink" x="0px" y="0px"
	 viewBox="-440 215.8 124.5 110.5" style="enable-background:new -440 215.8 124.5 110.5;" xml:space="preserve">
<style type="text/css">
	.st0{fill:#FFFFFF;}
</style>
<path class="st0" d="M-342.6,245.5h0.8c1.7,0,3-1.3,3-3s-1.3-3-3-3h-32.7l-0.3-11c0-1.7-1.3-3-3-3s-3,1.3-3,3l-0.3,11h-32.7
	c-1.7,0-3,1.3-3,3s1.3,3,3,3h0.8l-14.8,43c0,0,0,10,18,10s18-10,18-10l-14.8-43h25.4l-0.1,2.1c-1.5,1.1-2.5,2.9-2.5,4.9
	c0,1.9,0.9,3.6,2.3,4.7l-1.2,49.5c-19,1.3-19.1,9.8-19.1,9.8h48c0,0,0-8.6-19.1-9.8l-1.2-49.5c1.4-1.1,2.3-2.8,2.3-4.7
	c0-2-1-3.8-2.5-4.9l-0.1-2.1h25.4l-14.8,43c0,0,0,10,18,10s18-10,18-10L-342.6,245.5z M-411.8,254.6v33.9h-11.5L-411.8,254.6z
	 M-407.8,288.5v-33.9l11.5,33.9H-407.8z M-343.8,254.6l11.5,33.9h-11.5V254.6z M-347.8,254.6v33.9h-11.5L-347.8,254.6z"/>
</svg>
