<?xml version="1.0" encoding="utf-8"?>
<!-- Generator: Adobe Illustrator 22.0.1, SVG Export Plug-In . SVG Version: 6.00 Build 0)  -->
<svg version="1.1" id="Layer_1" xmlns="http://www.w3.org/2000/svg" xmlns:xlink="http://www.w3.org/1999/xlink" x="0px" y="0px"
	 viewBox="0 0 498 463" style="enable-background:new 0 0 498 463;" xml:space="preserve">
<style type="text/css">
	.st0{fill:#FFFFFF;}
</style>
<path class="st0" d="M363.1,307.5c0-7.4-3.9-38.4-10.5-43c-13.3-9-36.2-17.1-56.1-24.7h2h12.1c0,0-0.2-0.1-0.2-0.5
	c-1.6-10.8-3.2-21.1-3.2-32.1c0-13.1,2.6-26.1,2.6-39.2c0-16.3-3.3-32.1-11.7-46.3c-9.8-16.5-24.7-24.7-43.8-24.9
	c-1.9,0-3.4,0-5.9-0.1c-1.9,0-3.9,0-5.7,0.1c-19.1,0.3-33.8,8.5-43.7,24.9c-8.5,14.2-11.7,30-11.7,46.3c0,13.1,2.6,26.1,2.6,39.2
	c0,10.9-1.6,21.3-3.2,32.1c0,0.3-0.1,0.5-0.2,0.5h12.1h1.5c-20,7.6-43,15.7-56.3,24.7c-6.7,4.5-10.5,35.5-10.5,42.9
	c0,5.2-0.1,23.2,0,28.4c0.2,7.4,5.5,12.1,14,12.2c31.2,0.1,68.3,0,99.6,0c0.5,0,1.4,0,1.4-0.2c0,0.1,0.9,0.2,1.3,0.2
	c31.2,0,68.3,0.1,99.5,0c8.5,0,13.8-4.8,14-12.2C363.2,330.7,363.1,312.7,363.1,307.5z M204.1,256.2l-17.6,1.1l18.6-17.4l43,44.1
	L204.1,256.2z M233,224.3c-11.6-7.4-18.3-18.5-23.6-30.7c-0.8-1.8-2.5-3.6-4.1-4.8c-6.7-4.4-7.6-17.4-1.7-23c1.1-1,1.3-3,1.9-4.4
	c1.8-4.5,3-10.6,5.3-14.8c5.5-9.2,13.6-10,23.2-5.1c16.6,8.5,33.1,10.7,49.7,19.2c3.1,1.6,6.1,7,9.1,7.4c3,0.2,5.6,2.2,5.9,5.1
	c0.7,6-1.8,11.3-6.6,14.6c-1.4,1-2.3,4.1-3,5.7c-5.3,12.2-12.1,23.3-23.6,30.7C254.5,231,243.7,231,233,224.3z M294.2,256.2
	l-44.1,27.7l43-44.1l18.6,17.4L294.2,256.2z"/>
</svg>
