<?xml version="1.0" encoding="utf-8"?>
<!-- Generator: Adobe Illustrator 19.0.0, SVG Export Plug-In . SVG Version: 6.00 Build 0)  -->
<svg version="1.1" id="Layer_1" xmlns="http://www.w3.org/2000/svg" xmlns:xlink="http://www.w3.org/1999/xlink" x="0px" y="0px"
	 viewBox="-199 0 560 560" style="enable-background:new -199 0 560 560;" xml:space="preserve">
<style type="text/css">
	.st0{fill:none;stroke:#FFFFFF;stroke-width:10;stroke-miterlimit:10;}
</style>
<polygon class="st0" points="-106.5,189.8 31.2,135.1 134.2,189.9 276.5,135.3 276.5,392.9 135,428.5 33.5,397.4 -106.5,428.5 "/>
<line class="st0" x1="-89" y1="317.8" x2="-73.5" y2="304.3"/>
<line class="st0" x1="-64.1" y1="295.4" x2="-48.6" y2="281.9"/>
<line class="st0" x1="-36.2" y1="272.8" x2="-19.4" y2="260.9"/>
<line class="st0" x1="-2.4" y1="255" x2="12.9" y2="258"/>
<path class="st0" d="M130.6,278.3"/>
<path class="st0" d="M124.7,280.9"/>
<line class="st0" x1="117.4" y1="278.4" x2="97" y2="281"/>
<line class="st0" x1="81.6" y1="281.7" x2="61" y2="282.3"/>
<line class="st0" x1="44.9" y1="276" x2="31.2" y2="268.4"/>
<path class="st0" d="M126,301.4"/>
<path class="st0" d="M165.3,228.3"/>
<line class="st0" x1="124.8" y1="239.5" x2="176.5" y2="296.2"/>
<line class="st0" x1="165" y1="234.5" x2="127" y2="301.2"/>
</svg>
