<?xml version="1.0" encoding="utf-8"?>
<!-- Generator: Adobe Illustrator 19.0.0, SVG Export Plug-In . SVG Version: 6.00 Build 0)  -->
<svg version="1.1" id="Layer_1" xmlns="http://www.w3.org/2000/svg" xmlns:xlink="http://www.w3.org/1999/xlink" x="0px" y="0px"
	 viewBox="-199 0 560 560" style="enable-background:new -199 0 560 560;" xml:space="preserve">
<style type="text/css">
	.st0{fill:none;}
	.st1{enable-background:new    ;}
	.st2{fill:#FFFFFF;}
</style>
<rect x="-649.8" y="139.1" class="st0" width="559.8" height="542.9"/>
<g class="st1">
	<path class="st2" d="M-34.2,356.3H-58V196l-36.1,0.5v-18l59.9-6.8V356.3z"/>
	<path class="st2" d="M124.1,285.9c0,23.6-5,41.7-15,54.2c-10,12.6-23.6,18.8-41,18.8c-17.4,0-31.1-6.3-41.2-18.9
		c-10.1-12.6-15.1-30.6-15.1-54.2v-43.8c0-23.5,5-41.6,15.1-54.2c10.1-12.6,23.7-19,41-19c17.4,0,31.1,6.3,41.1,19
		c10.1,12.6,15.1,30.7,15.1,54.2V285.9z M100.3,236.8c0-16-2.8-28-8.3-36.1c-5.5-8.1-13.5-12.1-24-12.1c-10.5,0-18.5,4-24,12.1
		c-5.5,8.1-8.2,20.1-8.2,36.1v54.1c0,16,2.8,28,8.4,36.2c5.6,8.2,13.6,12.2,24.1,12.2c10.5,0,18.5-4.1,23.9-12.2
		c5.5-8.1,8.2-20.2,8.2-36.2V236.8z"/>
	<path class="st2" d="M219.9,257h48.3v22.6h-48.3v58.2h-23.9v-58.2h-48.7V257h48.7v-53.6h23.9V257z"/>
</g>
</svg>
