<?xml version="1.0" encoding="utf-8"?>
<!-- Generator: Adobe Illustrator 19.0.0, SVG Export Plug-In . SVG Version: 6.00 Build 0)  -->
<svg version="1.1" id="Layer_1" xmlns="http://www.w3.org/2000/svg" xmlns:xlink="http://www.w3.org/1999/xlink" x="0px" y="0px"
	 viewBox="-432 230.7 94 100.3" style="enable-background:new -432 230.7 94 100.3;" xml:space="preserve">
<style type="text/css">
	.st0{fill:#FFFFFF;}
</style>
<g>
	<path class="st0" d="M-368.2,265.9c-3.6-5.4-16.8-24.6-16.8-24.6s-13.2,19.2-16.9,24.6c-2.2,3.2-3.5,7.1-3.5,11.3
		c0,11.2,9.1,20.3,20.3,20.3s20.3-9.1,20.3-20.3C-364.7,273-366,269.1-368.2,265.9z M-385,294.7c-8.9,0-16-7.2-16-16
		c0-3.3,1-6.4,2.8-9c2.9-4.3,13.3-19.5,13.3-19.5s10.4,15.2,13.3,19.5c1.8,2.6,2.8,5.7,2.8,9C-368.9,287.6-376.1,294.7-385,294.7z"
		/>
</g>
</svg>
