<?xml version="1.0" encoding="utf-8"?>
<!-- Generator: Adobe Illustrator 19.0.0, SVG Export Plug-In . SVG Version: 6.00 Build 0)  -->
<svg version="1.1" id="Layer_1" xmlns="http://www.w3.org/2000/svg" xmlns:xlink="http://www.w3.org/1999/xlink" x="0px" y="0px"
	 viewBox="-272 -95 617 607" style="enable-background:new -272 -95 617 607;" xml:space="preserve">
<style type="text/css">
	.st0{fill:#FFFFFF;}
	.st1{fill:none;stroke:#FFFFFF;stroke-width:19;stroke-miterlimit:10;}
</style>
<g>
	<path class="st0" d="M252.8,236.6c-4.6-11.4-10.7-22.4-16.7-33l-0.3-0.5c-7.1-12.6-15.1-26.9-21.3-43.4
		c-14.8-39.2-0.4-53.9,19.6-74.2l18.3-18.6c0,0,0,0,0.1-0.1c3.5-3.7,5.5-8.4,5.5-13.4c0-5.7-2.5-11.1-7-14.7l-2-1.6c0,0,0,0-0.1-0.1
		l-96.3-79.4c-4-3.5-9.1-5.3-14.4-5.1c-4.9,0.3-9.5,2.3-12.9,5.8c-0.1,0.1-0.2,0.2-0.3,0.3c-3.8,4.1-7.5,8.3-9.2,10.2l-3.1,3.6
		c-7.3,8.6-14.9,17.4-23.4,17.4c-10,0-20.5-11.6-28.9-20.9l-0.1-0.1c-3.5-3.9-7.7-8.2-11.2-11.3l-0.4-0.4c-0.3-0.3-0.6-0.5-0.9-0.7
		c-3.5-2.5-7.2-3.8-11.1-4c-0.3,0-0.6,0-1,0c-4.2,0.2-8.2,1.8-11.5,4.4c-0.1,0.1-0.3,0.2-0.4,0.3c-3.7,3.3-7.9,7.5-11.5,11.5
		c-8.5,9.4-19,21.1-29.1,21.1c-8.6,0-16.1-8.9-23.5-17.5l-3-3.6c0,0-0.1-0.1-0.1-0.2c-1.5-1.7-5.2-5.8-8.7-9.7
		c-0.1-0.2-0.3-0.3-0.4-0.5c-3.9-3.9-9-6-14.3-6c-4.8,0-9.3,1.7-12.9,4.9l-97.2,80.2c0,0-0.1,0.1-0.1,0.1l-1.3,1.1
		c-4.4,3.7-6.9,9-6.9,14.7c0,5,1.9,9.8,5.5,13.4c0,0,0,0,0.1,0.1l18.3,18.6c20,20.3,34.4,35,19.6,74.2
		c-6.4,16.9-14.4,31.1-21.5,43.8l-0.1,0.1c-12.1,21.6-24.6,44-24.6,70.9c0,36.4,12.2,69.4,35.3,95.3c22.8,25.6,55,43.7,95.7,53.8
		c50.3,12.5,56.2,17.1,80.8,36.6c3.3,2.6,8,3.8,10.6,4.3c0.6,0.1,1.3,0.2,1.9,0.2c0.1,0,0.2,0,0.3,0c4.4-0.1,8.5-1.6,11.9-4.3
		c24.7-19.6,30.6-24.2,80.9-36.7c40.7-10.1,72.9-28.2,95.7-53.8c23.1-25.9,35.3-58.8,35.3-95.3C260.7,262.2,258.1,249.8,252.8,236.6
		z M209.5,355.5c-20,22.3-48.5,38.2-84.9,47.3c-54.1,13.4-62.6,19.7-88.1,39.9C11,422.5,2.6,416.2-51.6,402.8
		c-36.4-9-65-25-84.9-47.3c-19.6-21.9-29.9-49.9-29.9-81.1c0-21.3,10.1-39.5,21.9-60.5l0-0.1c7.1-12.6,15.9-28.3,22.9-46.7
		c19.6-51.9-3.7-75.7-24.4-96.7l-16.7-16.9l96-79.2c3.1,3.5,6.1,6.8,7.5,8.4l3,3.4c9,10.5,21.2,25,39.7,25
		C3.1,11.2,17.7-5,28.4-16.9c2.5-2.8,5.5-5.8,8.1-8.3c2.6,2.4,5.6,5.5,8.1,8.3c0,0,0,0,0.1,0.1l0.2,0.2C55.4-4.9,70,11.2,89.5,11.2
		c18.4,0,30.2-13.8,39.6-24.8l3.1-3.6c1.1-1.3,4-4.5,7.5-8.3l95.8,79l0.2,0.2L219,70.5c-20.6,20.9-44,44.7-24.4,96.7
		c6.8,17.9,15.2,33,22.6,46.3l0.3,0.5c11.7,21,21.8,39.1,21.8,60.4C239.4,305.5,229.1,333.6,209.5,355.5z"/>
	<path class="st0" d="M114.3,340.2c0,0-4.5,3.9-14.9,8c-11.3,4.4-31.4,9.6-63.1,9.6c-58.2,0-78.4-18.2-78.6-18.4l0.1,0.1h0
		c-1.9-1.8-4.5-3-7.4-3c-5.9,0-10.7,4.8-10.7,10.7c0,3.1,1.3,5.9,3.5,7.8c4.2,4,29,24,93.1,24c67.1,0,90.6-21.3,93-23.7
		c4.2-4.1,4.2-10.9,0.1-15.1C125.2,336.1,118.4,336.1,114.3,340.2z"/>
	<path class="st0" d="M-49.1,59.2h170.7c5.9,0,10.7-4.8,10.7-10.7c0-5.9-4.8-10.7-10.7-10.7H-49.1c-5.9,0-10.7,4.8-10.7,10.7
		C-59.7,54.4-55,59.2-49.1,59.2z"/>
</g>
<circle class="st1" cx="36.5" cy="208.5" r="93.6"/>
<polygon class="st1" points="77.7,273.7 36.3,251.3 -5.3,273.4 2.8,226.3 -30.7,192.8 15.8,186.1 36.7,143.3 57.3,186.3 
	103.7,193.3 70,226.6 "/>
</svg>
