<?xml version="1.0" encoding="utf-8"?>
<!-- Generator: Adobe Illustrator 19.0.0, SVG Export Plug-In . SVG Version: 6.00 Build 0)  -->
<svg version="1.1" id="Layer_1" xmlns="http://www.w3.org/2000/svg" xmlns:xlink="http://www.w3.org/1999/xlink" x="0px" y="0px"
	 viewBox="-443 207.3 131.5 122.5" style="enable-background:new -443 207.3 131.5 122.5;" xml:space="preserve">
<style type="text/css">
	.st0{fill:#FFFFFF;}
</style>
<title>Artboard 10</title>
<path class="st0" d="M-346.6,253.4c-2.1,3.6-0.9,8.2,2.8,10.3c3.6,2.1,8.2,0.9,10.3-2.8c1.6-2.9,1.3-6.4-1-8.9
	c0.2-2.2-0.3-4.5-1.4-6.5c-2.4-4.1-7.4-6.1-14.3-6.1c-3.3,0-6.6,0.4-9.9,1.2c-3.4-12.2-9.2-21-17.2-21c-10.4,0-17,14.3-19.5,31.9
	c-0.3,2.1-0.5,4.2-0.7,6.3c-2.6,1.8-5.1,3.7-7.4,5.6c-6.7-6.9-9.4-12.9-7.9-15.5c0.1-0.1,0.2-0.3,0.3-0.4c3.1,2.7,7.9,2.4,10.6-0.7
	c2.7-3.1,2.4-7.9-0.7-10.6c-3.1-2.7-7.9-2.4-10.6,0.7c-0.7,0.8-1.2,1.7-1.5,2.6c-2,0.9-3.8,2.5-4.9,4.4c-3.9,6.8,0.4,15.9,8.9,24.7
	c-9.1,9.1-13.9,18.6-9.8,25.7c1.8,3,5.6,6.3,14,6.3c2.5,0,4.9-0.2,7.3-0.7c6.7-1.2,13.2-3.3,19.4-6.1c1.2-0.5,2.5-1.1,3.7-1.7
	c2.7,1.2,5.4,2.2,8.1,3.2c-2.7,8.9-6.4,14-9.3,14c-0.2,0-0.3,0-0.5-0.1c0.8-4.1-1.9-8-5.9-8.9c-4.1-0.8-8,1.9-8.9,5.9
	c-0.8,4.1,1.9,8,5.9,8.9c1,0.2,2.1,0.2,3.1,0c1.8,1.3,4,2,6.3,2c7.8,0,13.4-8.1,16.8-19.6c3.7,0.9,7.5,1.4,11.3,1.5l0,0
	c6.5,0,11.5-1.9,14.1-6.3c5.1-8.9-3.7-21.5-17.4-32.4c-1.5-1.2-3.1-2.4-4.8-3.6c-0.3-2.9-0.7-5.8-1.2-8.6c2.7-0.6,5.5-1,8.3-1
	c4,0,6.5,0.9,7.3,2.3c0.1,0.2,0.2,0.3,0.2,0.5C-344.3,250.7-345.7,251.8-346.6,253.4z M-388.8,251.6c2.4-15.1,7.6-24,11.6-24
	c3.1,0,6.9,5.5,9.6,15.1c-3.4,1.1-6.7,2.4-10,3.9c-3.7,1.7-7.3,3.5-10.8,5.6l-0.4,0.2C-388.9,252.1-388.9,251.9-388.8,251.6z
	 M-400.4,292.3c-2,0.3-3.9,0.5-5.9,0.6c-4.3,0-6.6-1.1-7.3-2.3c-1.6-2.7,1.4-9,8.7-16.3c5.4,4.6,11.2,8.6,17.3,12.2
	c0.8,0.5,1.6,0.9,2.4,1.4C-390.1,289.8-395.2,291.3-400.4,292.3z M-366.2,287.7c-1.2-0.4-2.5-0.9-3.8-1.4l-6.3-2.8
	c-2.4-1.2-4.9-2.5-7.5-4c-5.4-3.1-10.5-6.6-15.3-10.6c1-0.8,2.1-1.7,3.2-2.5l6-4.2c1.7-1.1,3.5-2.2,5.3-3.3
	c3.3-1.9,6.7-3.6,10.1-5.2c3-1.4,5.9-2.5,8.5-3.4c0.2,1.3,0.4,2.6,0.6,4l0.6,6.8c0.1,2.3,0.2,4.7,0.2,7.3
	C-364.5,275-365,281.4-366.2,287.7z M-356.6,268.5c0-0.4,0-0.9,0-1.3l0.4,0.3c11.4,9.4,16.3,18.1,14.4,21.5
	c-0.9,1.5-3.4,2.3-7.2,2.3c-3.2-0.1-6.5-0.5-9.6-1.3C-357.3,282.9-356.6,275.7-356.6,268.5z M-370,268.5c0,4-3.2,7.3-7.3,7.3
	s-7.3-3.2-7.3-7.3c0-4,3.2-7.3,7.3-7.3S-370,264.5-370,268.5L-370,268.5z"/>
</svg>
