<?xml version="1.0" encoding="utf-8"?>
<!-- Generator: Adobe Illustrator 19.0.0, SVG Export Plug-In . SVG Version: 6.00 Build 0)  -->
<svg version="1.1" id="Layer_1" xmlns="http://www.w3.org/2000/svg" xmlns:xlink="http://www.w3.org/1999/xlink" x="0px" y="0px"
	 viewBox="-453.5 205.3 124.5 125.5" style="enable-background:new -453.5 205.3 124.5 125.5;" xml:space="preserve">
<style type="text/css">
	.st0{fill:none;stroke:#FFFFFF;stroke-miterlimit:10;}
</style>
<path class="st0" d="M-404.7,255.3c-0.1,0-0.1,0.1-0.2,0.1c-0.1,0.1-0.2,0.2-0.3,0.3c-0.1,0.1-0.1,0.1-0.2,0.1c0,0-0.1,0-0.1,0
	c-0.5,0.1-1,0.2-1.5,0.3c0,0.1,0.1,0.1,0.1,0.2l0.3,1.7c0,0.2,0,0.4-0.2,0.4c-0.2,0-0.3-0.1-0.3-0.3l-0.3-1.7c0-0.1,0-0.2,0-0.2
	c-0.2,0.1-0.4,0.1-0.6,0.2c0,0,0,0.1,0.1,0.2l0.4,1.6c0.1,0.2,0,0.4-0.1,0.4c-0.2,0-0.3,0-0.3-0.3l-0.4-1.6c0-0.1,0-0.1,0-0.1
	c-0.2,0.1-0.3,0.1-0.5,0.2c0,0,0,0.1,0.1,0.1l0.5,1.6c0.1,0.2,0,0.4-0.1,0.4c-0.2,0.1-0.3,0-0.3-0.3l-0.5-1.6c0,0,0-0.1,0-0.1
	c-0.2,0.1-0.4,0.2-0.6,0.2c0,0,0,0.1,0,0.1l0.7,1.6c0.1,0.2,0.1,0.4-0.1,0.4c-0.2,0.1-0.3,0-0.4-0.2l-0.7-1.6c0,0,0-0.1,0-0.1
	c-0.2,0.1-0.4,0.2-0.6,0.3c0,0,0,0,0,0.1l0.8,1.5c0.1,0.2,0.1,0.4,0,0.4c-0.2,0.1-0.3,0-0.4-0.2l-0.8-1.5c0,0,0,0,0-0.1
	c-0.1,0.1-0.2,0.1-0.3,0.2c-0.1,0.1-0.2,0.1-0.3,0.2l0,0.1l1,1.4c0.1,0.2,0.1,0.3,0,0.4c-0.1,0.1-0.3,0-0.4-0.2l-1-1.4
	c0,0,0,0,0-0.1c-0.2,0.1-0.3,0.2-0.5,0.4c0,0,0,0,0.1,0.1l1.1,1.3c0.2,0.2,0.2,0.3,0,0.4c-0.1,0.1-0.3,0.1-0.4-0.1l-1.1-1.3
	c0,0,0,0,0-0.1c-0.2,0.1-0.3,0.3-0.5,0.4c0,0,0,0,0.1,0.1l1.2,1.2c0.2,0.2,0.2,0.3,0.1,0.4c-0.1,0.1-0.3,0.1-0.4-0.1l-1.2-1.2
	c0,0,0,0-0.1-0.1c-0.2,0.2-0.3,0.4-0.5,0.6c0,0,0,0,0.1,0l1.4,1c0.2,0.1,0.2,0.3,0.1,0.4c-0.1,0.1-0.2,0.1-0.4,0l-1.4-1
	c0,0,0,0-0.1,0l-0.1,0.1c-0.1,0.1-0.2,0.3-0.3,0.4l0.1,0l1.5,0.9c0.2,0.1,0.3,0.2,0.2,0.4c-0.1,0.1-0.2,0.2-0.4,0l-1.4-0.9l-0.1,0
	c-0.1,0.2-0.2,0.4-0.3,0.7l0,0l1.6,0.7c0.2,0.1,0.3,0.2,0.2,0.4c-0.1,0.2-0.2,0.2-0.4,0.1l-1.6-0.7l0,0c-0.1,0.2-0.1,0.4-0.2,0.6
	l1.6,0.5c0.2,0.1,0.3,0.2,0.3,0.3c-0.1,0.2-0.2,0.2-0.4,0.1l-1.6-0.5c-0.1,0.3-0.1,0.5-0.2,0.8l1.7,0.2c0.2,0,0.3,0.1,0.3,0.3
	c0,0.2-0.2,0.2-0.4,0.2l-1.7-0.2c0,0.2,0,0.5,0,0.7l1.7,0c0.2,0,0.4,0.1,0.4,0.3c0,0.2-0.1,0.2-0.4,0.2l-1.6,0c0,0.2,0,0.5,0.1,0.7
	l3.2-0.7c0.5-0.1,0.7,0.7,0.2,0.8l-4,0.9l-0.9,2.6l-1,2.9l3.9,4.4l0.3-0.1l-1-4.5c-0.1-0.5,0-1.1,0.2-1.5c0.2-0.4,0.5-0.8,0.9-1
	c0.5-0.3,1.3-0.5,1.8-0.5c0.3,0,0.5,0.1,0.7,0.2c0.5,0.2,0.9,0.5,1.1,0.9c0.3,0.5,0.4,1,0.5,1.5l0.8,3.9l0.3-0.1l1.8-5.6l-3.9-4.3
	l-0.3,0.1c-0.1,0-0.2,0-0.3-0.1c-0.1-0.1-0.2-0.1-0.2-0.3c-0.3-1.7,0.6-3.3,1.9-4.4c1-0.9,2.3-1.5,4-1.9v-2.8c0-0.6,0.8-0.6,0.8,0
	l0,16.4h28l0-16.5c0-0.6,0.8-0.6,0.8,0v2.7c0.3,0,0.6-0.1,0.9-0.2c0-0.1-0.1-0.1-0.1-0.2l-0.3-1.7c0-0.2,0-0.4,0.2-0.4
	c0.2,0,0.3,0.1,0.3,0.3l0.3,1.7c0,0.1,0,0.2,0,0.2c0.2-0.1,0.4-0.1,0.6-0.2c0,0,0-0.1-0.1-0.2l-0.4-1.6c-0.1-0.2,0-0.4,0.1-0.4
	c0.2,0,0.3,0.1,0.3,0.3l0.4,1.6c0,0.1,0,0.1,0,0.2c0.2-0.1,0.3-0.1,0.5-0.2c0,0,0-0.1-0.1-0.1l-0.5-1.6c-0.1-0.2,0-0.4,0.1-0.4
	c0.2-0.1,0.3,0,0.3,0.3l0.5,1.6c0,0,0,0.1,0,0.1c0.2-0.1,0.4-0.2,0.6-0.2c0,0,0-0.1,0-0.1l-0.6-1.6c-0.1-0.2-0.1-0.4,0.1-0.4
	c0.2-0.1,0.3,0,0.4,0.2l0.6,1.6c0,0,0,0.1,0,0.1c0.2-0.1,0.4-0.2,0.6-0.3c0,0,0,0,0-0.1l-0.8-1.5c-0.1-0.2-0.1-0.4,0.1-0.4
	c0.1-0.1,0.3,0,0.4,0.2l0.8,1.5c0,0,0,0,0,0.1c0.1-0.1,0.2-0.1,0.3-0.2c0.1-0.1,0.2-0.1,0.3-0.2l0-0.1l-1-1.4
	c-0.1-0.2-0.1-0.3,0-0.4c0.1-0.1,0.3,0,0.4,0.2l1,1.4c0,0,0,0,0,0.1c0.2-0.1,0.3-0.2,0.5-0.4c0,0,0,0-0.1-0.1l-1.1-1.3
	c-0.2-0.2-0.2-0.3,0-0.4c0.1-0.1,0.3-0.1,0.4,0.1l1.1,1.3c0,0,0,0,0,0.1c0.2-0.1,0.3-0.3,0.5-0.4c0,0,0,0-0.1-0.1l-1.2-1.2
	c-0.2-0.2-0.2-0.3-0.1-0.4c0.1-0.1,0.3-0.1,0.4,0.1l1.2,1.2c0,0,0,0,0.1,0.1c0.2-0.2,0.3-0.4,0.5-0.6c0,0,0,0-0.1,0l-1.3-1
	c-0.2-0.1-0.2-0.3-0.1-0.4c0.1-0.1,0.2-0.1,0.4,0l1.3,1c0,0,0,0,0.1,0l0.1-0.1c0.1-0.1,0.2-0.3,0.3-0.4l-0.1,0l-1.4-0.9
	c-0.2-0.1-0.3-0.3-0.2-0.4c0.1-0.1,0.2-0.1,0.4,0l1.4,0.9l0,0c0.1-0.2,0.2-0.4,0.3-0.7l0,0l-1.5-0.7c-0.2-0.1-0.3-0.2-0.2-0.4
	c0.1-0.2,0.2-0.2,0.4-0.1l1.5,0.7l0,0c0.1-0.2,0.2-0.4,0.2-0.6l-1.6-0.5c-0.2-0.1-0.3-0.2-0.3-0.3c0.1-0.2,0.2-0.2,0.4-0.1l1.6,0.5
	c0.1-0.3,0.1-0.5,0.2-0.8l-1.7-0.2c-0.2,0-0.3-0.1-0.3-0.3c0-0.2,0.2-0.2,0.4-0.2l1.6,0.2c0-0.2,0-0.5,0-0.7l-1.6,0
	c-0.2,0-0.4-0.1-0.4-0.3c0-0.2,0.1-0.2,0.4-0.2l1.6,0c0-0.2,0-0.5-0.1-0.7l-3.2,0.7c-0.5,0.1-0.7-0.7-0.2-0.8l4.1-0.8l0.9-2.6l1-2.9
	l-3.9-4.4l-0.3,0.1l0.9,4.5c0.1,0.5,0,1.1-0.2,1.5c-0.2,0.4-0.5,0.8-0.9,1c-0.5,0.3-1.3,0.5-1.8,0.4c-0.3,0-0.5-0.1-0.7-0.2
	c-0.5-0.2-0.8-0.5-1.1-0.9c-0.3-0.5-0.4-1-0.5-1.6l-0.8-3.9l-0.3,0.1l-1.9,5.6l3.9,4.4l0.3-0.1c0.1,0,0.2,0,0.3,0.1
	c0.1,0.1,0.2,0.2,0.2,0.3c0.3,1.7-0.6,3.3-1.9,4.4c-1.1,0.9-2.5,1.6-4.3,1.9l-0.3,0.1c-0.1,0-0.3,0-0.4,0.1c-0.1,0-0.2,0-0.3,0
	c-0.1,0-0.2-0.1-0.2-0.2c-0.1-0.2-0.3-0.3-0.5-0.4c-0.2-0.1-0.4-0.2-0.7-0.3l-4.9,0c-0.3,1.8-1.9,3.2-3.8,3.3c0.9,1,1.5,2.3,1.5,3.8
	c0,3.1-2.5,5.6-5.6,5.6c-3.1,0-5.6-2.5-5.6-5.6c0-1.5,0.6-2.8,1.5-3.8c-2,0-3.6-1.4-4-3.3l-4.1,0
	C-404.1,255.1-404.4,255.2-404.7,255.3z M-368.6,237.7c0.1-0.1,0.2-0.2,0.3-0.2C-368.4,237.5-368.5,237.6-368.6,237.7z
	 M-414.1,278.9l-0.9,0.2c-0.1,0-0.2,0-0.3,0c-0.1,0-0.2-0.1-0.2-0.2l-4.2-4.7c-0.1-0.1-0.1-0.1-0.1-0.2c0-0.1,0-0.2,0-0.3l1-3.1
	l0.9-2.9c0-0.1,0.1-0.2,0.3-0.3l0.2-0.1c-0.4-2.4,0.3-4.9,1.7-6.9c0.9-1.3,2.1-2.3,3.4-3.2c1.9-1.2,4.2-2,6.5-2.3
	c0.1-0.1,0.2-0.2,0.3-0.3c0.1-0.1,0.2-0.1,0.2-0.2c0.4-0.2,0.8-0.4,1.3-0.4l4,0c0.1-0.4,0.8-0.4,0.8,0.1c0,0.5,0.1,0.9,0.3,1.3
	c0.6-0.1,1.3-0.2,1.9-0.3v-2l-4.5,0c-0.2,0-0.3-0.1-0.3-0.2l-1.1-1.4c-0.1-0.1-0.1-0.2-0.1-0.3v-3.3c0-0.2,0.2-0.4,0.4-0.4h1v-1.3
	l-0.2,0c-0.6,0-1.1-0.4-1.2-1c-1.1,0.2-4.2,0.7-5.6,0.9c-2.4,0.3-1.9-2.3-2.6-2.6c-0.4,0-0.6-0.2-0.6-0.6c0-0.4,0.3-0.6,0.6-0.6
	c0.6-0.3,0.1-2.9,2.6-2.6c1.4,0.2,4.5,0.7,5.6,0.9c0-0.6,0.6-1.1,1.2-1.1h0.2l0-8.9c0-0.5,0.4-0.9,0.9-0.9h2.1
	c0.9,0,1.2,0.6,1.3,1.2l0.8,5h1.1v-0.2c0-0.6,0.5-1.1,1.1-1.2c-0.2-1.1-0.7-4.2-0.9-5.6c-0.3-2.4,2.3-2,2.6-2.6
	c0-0.4,0.2-0.6,0.6-0.6c0.4,0,0.6,0.3,0.6,0.6c0.3,0.6,2.9,0.1,2.6,2.6c-0.2,1.4-0.7,4.5-0.9,5.6c0.6,0.1,1,0.6,1,1.2l0,0.2h1.2
	l0.8-5c0.1-0.5,0.3-1.2,1.3-1.2h2.1c0.5,0,0.9,0.4,0.9,0.9l0,8.9h0.4c0.6,0,1.1,0.5,1.2,1.1c1.1-0.2,4.2-0.7,5.6-0.9
	c0.1,0,0.2,0,0.3,0l-0.3,0.9c-1.5,0.2-4.6,0.7-5.6,0.9v0.5c1.6-0.3,3.6-0.6,4.6-0.7c0.2,0,0.3,0.1,0.3,0.2v0.2h0.4l-0.2,0.7
	l-0.2,0.1l0.2,0l-0.6,1.9c0,0,0,0.1,0,0.1c-1.1-0.2-2.8-0.4-4.3-0.7v0.5c0.7,0.1,2.7,0.4,4.3,0.7c0.1,0.1,0.1,0.3,0.2,0.4l0.5,0.6
	c-1.5-0.2-4.1-0.6-5.1-0.8c-0.1,0.6-0.6,1-1.2,1l-0.4,0l0,1.3h1c0.2,0,0.4,0.2,0.4,0.4v3.3c0,0.1-0.1,0.2-0.1,0.3l-1.1,1.4
	c0,0-0.2,0.2-0.3,0.2h-4.5v2c0.7,0.1,1.3,0.2,1.9,0.3c0.2-0.4,0.3-0.9,0.3-1.3c0-0.5,0.7-0.6,0.8-0.1c2.9,0,4.9,0,4.9,0l0.1,0
	c0.4,0.1,0.7,0.2,1,0.4c0.2,0.1,0.4,0.3,0.5,0.5l0.1,0l0.3-0.1c1.7-0.3,3-1,4-1.8c1-0.8,1.7-1.9,1.7-3.2l-0.1,0
	c-0.1,0-0.3,0-0.4-0.1l-4.2-4.7c-0.1-0.1-0.1-0.1-0.1-0.2c0-0.1,0-0.2,0-0.3l2-5.9c0-0.1,0.1-0.3,0.3-0.3l0.9-0.2c0.1,0,0.2,0,0.3,0
	c0.1,0.1,0.2,0.1,0.2,0.3l0.9,4.3c0.1,0.4,0.1,0.9,0.4,1.2c0.2,0.3,0.4,0.5,0.7,0.6c0.2,0.1,0.3,0.1,0.5,0.1c0.4,0,1-0.1,1.3-0.3
	c0.3-0.2,0.5-0.4,0.6-0.7c0.1-0.3,0.2-0.7,0.1-1l-1-4.9c0-0.1,0-0.2,0-0.3c0.1-0.1,0.1-0.1,0.3-0.2l0.9-0.2c0.1,0,0.2,0,0.3,0
	c0.1,0,0.2,0.1,0.2,0.2l4.1,4.7c0.1,0.1,0.1,0.1,0.1,0.2c0,0.1,0,0.2,0,0.3l-1,3.1l-1,2.8c0,0.1-0.1,0.2-0.3,0.3l-0.2,0.1
	c0.3,2.4-0.4,4.9-1.8,6.9c-0.9,1.3-2.1,2.3-3.5,3.1c-1.8,1.1-3.9,1.8-6.1,2.2l0,13.4c0,0.2-0.2,0.4-0.4,0.4h-1.4v0.9h0.9
	c0.2,0,0.4,0.2,0.4,0.4v3c0,1.3-1,2.3-2.2,2.5v8c0,0.8-0.6,1.4-1.4,1.4h-0.5c-0.3,0-0.6,0.3-0.6,0.6v2.3c0,0.8-0.6,1.4-1.4,1.4h-1.9
	c-0.8,0-1.4-0.6-1.4-1.4v-2.3c0-0.3-0.3-0.6-0.6-0.6h-0.5c-0.8,0-1.4-0.6-1.4-1.4l0-8h-5.3v8c0,0.8-0.6,1.4-1.4,1.4h-0.5
	c-0.3,0-0.6,0.3-0.6,0.6v2.3c0,0.8-0.6,1.4-1.4,1.4h-1.9c-0.8,0-1.4-0.6-1.4-1.4v-2.3c0-0.3-0.3-0.6-0.6-0.6h-0.5
	c-0.8,0-1.4-0.6-1.4-1.4l0-8c-1.3,0-2.4-1.1-2.4-2.5v-3c0-0.2,0.2-0.4,0.4-0.4h1.1v-0.9h-1.1c-0.2,0-0.4-0.2-0.4-0.4l0-13.2
	c-1.5,0.4-2.6,1-3.4,1.7c-1,0.8-1.7,2-1.7,3.2l0.1,0c0.1,0,0.3,0,0.4,0.1l4.2,4.7c0.1,0.1,0.1,0.1,0.1,0.2c0,0.1,0,0.2,0,0.3l-1.9,6
	c0,0.1-0.1,0.3-0.3,0.3l-0.9,0.2c-0.1,0-0.2,0-0.3,0c-0.1-0.1-0.2-0.1-0.2-0.3l-0.9-4.3c-0.1-0.4-0.1-0.9-0.4-1.2
	c-0.2-0.3-0.4-0.5-0.7-0.6c-0.2-0.1-0.3-0.1-0.5-0.1c-0.4,0-1,0.1-1.3,0.3c-0.3,0.2-0.5,0.4-0.6,0.7c-0.1,0.3-0.2,0.7-0.1,1l1,4.9
	c0,0.1,0,0.2,0,0.3C-413.9,278.8-414,278.8-414.1,278.9z M-413.9,278.7c-0.1,0.1-0.2,0.2-0.3,0.2
	C-414,278.8-413.9,278.8-413.9,278.7z M-404,274.9v0.9h2.4v-0.9H-404z M-400.8,274.9v0.9h2.4v-0.9H-400.8z M-397.6,274.9v0.9h2.4
	v-0.9H-397.6z M-394.4,274.9v0.9h2.4v-0.9H-394.4z M-391.2,274.9v0.9h2.4v-0.9H-391.2z M-388,274.9v0.9h2.3v-0.9H-388z
	 M-384.8,274.9v0.9h2.4v-0.9H-384.8z M-381.6,274.9v0.9h2.3v-0.9H-381.6z M-388.1,281.6l0,8c0,0.3,0.3,0.6,0.6,0.6l0.5,0
	c0.8,0,1.4,0.6,1.4,1.4v2.3c0,0.3,0.3,0.6,0.6,0.6h1.9c0.3,0,0.6-0.3,0.6-0.6v-2.3c0-0.8,0.6-1.4,1.4-1.4l0.5,0
	c0.3,0,0.6-0.3,0.6-0.6v-8C-380.2,281.6-388.1,281.6-388.1,281.6z M-403.1,281.6l0,8c0,0.3,0.3,0.6,0.6,0.6l0.5,0
	c0.8,0,1.4,0.6,1.4,1.4v2.3c0,0.3,0.3,0.6,0.6,0.6h1.9c0.3,0,0.6-0.3,0.6-0.6v-2.3c0-0.8,0.6-1.4,1.4-1.4l0.5,0
	c0.3,0,0.6-0.3,0.6-0.6v-8C-395.1,281.6-403.1,281.6-403.1,281.6z M-405.5,279.2c0,0.9,0.7,1.6,1.6,1.6h24.2c0.9,0,1.6-0.7,1.6-1.6
	v-2.6h-27.5L-405.5,279.2C-405.5,279.2-405.5,279.2-405.5,279.2z M-385.3,256.5c-2-0.4-4.1-0.6-6.4-0.6c-2.3,0-4.5,0.2-6.5,0.6
	c0.6,0.7,1.4,1.1,2.4,1.1h1c0.9-0.6,2-1,3.1-1c1.2,0,2.3,0.4,3.1,1h0.8C-386.8,257.5-385.9,257.1-385.3,256.5z M-387,262.2
	c0-2.6-2.1-4.7-4.7-4.7c-2.6,0-4.7,2.1-4.7,4.7c0,2.6,2.1,4.7,4.7,4.7C-389.1,266.9-387,264.8-387,262.2z M-389.3,236l0-0.2
	c0-0.2-0.2-0.3-0.3-0.3h-4.4c-0.2,0-0.3,0.2-0.3,0.3v0.2H-389.3z M-393.3,234.6h0.5c-0.3-1.6-0.6-3.6-0.7-4.6c0-0.2,0.1-0.3,0.2-0.3
	h0.2V229c0-0.3,0.4-0.4,0.5-0.1l0.3,0.9l0.2-1.1c0.1-0.3,0.4-0.3,0.5,0l0.2,1.1l0.3-0.9c0.1-0.3,0.5-0.3,0.5,0.1v0.8h0.2
	c0.2,0,0.3,0.1,0.2,0.3c-0.2,1-0.5,3-0.7,4.6h0.5c0.2-1,0.7-4.3,0.9-5.7c0.2-1.5-1.7-1.1-2.4-1.8c-0.7,0.7-2.5,0.3-2.4,1.8
	C-394,230.3-393.5,233.6-393.3,234.6z M-392.3,234.6h1c0.2-1.5,0.5-3.3,0.7-4.4h-0.2c0,0-0.1,0-0.1,0l-0.2,0.7
	c-0.1,0.3-0.4,0.3-0.5,0l-0.1-0.8l-0.1,0.8c-0.1,0.3-0.4,0.3-0.5,0l-0.2-0.7c0,0-0.1,0-0.1,0h-0.2
	C-392.8,231.3-392.5,233.1-392.3,234.6z M-380.7,242.6v1c1.5,0.2,3.3,0.5,4.4,0.7v-0.2c0,0,0-0.1,0-0.1l-0.7-0.2
	c-0.3-0.1-0.3-0.4,0-0.5l0.8-0.1l-0.8-0.1c-0.3-0.1-0.3-0.4,0-0.5l0.7-0.2c0,0,0-0.1,0-0.1v-0.2
	C-377.4,242.1-379.1,242.4-380.7,242.6z M-402.8,242.6c-1.5-0.2-3.3-0.5-4.4-0.7v0.2c0,0,0,0.1,0,0.1l0.7,0.2c0.3,0.1,0.3,0.4,0,0.5
	l-0.8,0.1l0.8,0.1c0.3,0.1,0.3,0.4,0,0.5l-0.7,0.2c0,0,0,0.1,0,0.1v0.2c1.1-0.2,2.9-0.5,4.4-0.7V242.6z M-402.8,241.6
	c-1-0.2-4.3-0.7-5.7-0.9c-1.5-0.2-1.1,1.7-1.8,2.4c0.7,0.7,0.3,2.5,1.8,2.4c1.4-0.2,4.7-0.7,5.7-0.9v-0.5c-1.6,0.3-3.6,0.6-4.6,0.7
	c-0.2,0-0.3-0.1-0.3-0.2v-0.2h-0.8c-0.3,0-0.4-0.4-0.1-0.5l0.9-0.3l-1.1-0.2c-0.3-0.1-0.3-0.4,0-0.5l1.1-0.2l-0.9-0.3
	c-0.3-0.1-0.3-0.5,0.1-0.5h0.8v-0.2c0-0.2,0.1-0.3,0.3-0.2c1,0.2,3,0.5,4.6,0.7V241.6z M-395.7,249.4c-0.5,0-1,0.1-1.5,0.3
	c-0.5,0.2-1.4,0.6-1.9,0.4l0,0c-0.2-0.1-0.3-0.2-0.4-0.5c-0.1-0.2-0.1-0.5-0.1-0.8v-0.2h-2.3v2.8l0.9,1.1h18.6l0.9-1.1v-2.8h-2.3
	v0.2c0,0.4-0.1,0.7-0.2,1l0,0c-0.1,0.1-0.2,0.2-0.4,0.3c-0.4,0.1-0.9,0-1.2-0.1c-0.7-0.3-1.4-0.6-2.2-0.6L-395.7,249.4L-395.7,249.4
	z M-382.2,240.5l0,5.1l0.4,0c0.2,0,0.3-0.2,0.3-0.3v-4.4c0-0.2-0.2-0.3-0.3-0.3L-382.2,240.5L-382.2,240.5z M-401.4,245.6l0-5.1
	h-0.2c-0.2,0-0.3,0.2-0.3,0.3v4.4c0,0.2,0.2,0.3,0.3,0.3L-401.4,245.6z M-400.6,240.5l0,7.3h1.3c0.2,0,0.4,0.2,0.4,0.4v0.6
	c0,0.1,0,0.4,0.1,0.5c0.1,0.1,1.1-0.3,1.3-0.4c0.5-0.2,1.1-0.4,1.8-0.4h7.8c0.9,0,1.6,0.3,2.5,0.6c0.1,0,0.6,0.2,0.7,0.2
	c0,0,0.1-0.2,0.1-0.5v-0.6c0-0.2,0.2-0.4,0.4-0.4h1.3l0-7.3h-5.9l-1.5,5.7c0,0.1-0.2,0.3-0.4,0.3h-2c-0.2,0-0.4-0.2-0.4-0.3
	l-1.5-5.7H-400.6z M-396.7,236.9c-0.2,0-0.4-0.2-0.4-0.4l-0.8-5.3c-0.1-0.4-0.1-0.5-0.4-0.5h-2.1c0,0-0.1,0-0.1,0.1l0,8.9h6.2
	c0.2,0,0.4,0.2,0.4,0.3l1.5,5.7h1.4l1.5-5.7c0-0.1,0.2-0.3,0.4-0.3h6.2l0-8.9c0,0,0-0.1-0.1-0.1h-2.1c-0.3,0-0.4,0.1-0.4,0.5
	l-0.8,5.3c0,0.2-0.2,0.4-0.4,0.4H-396.7z M-387.6,253.3h-1.2l-6.1,0h-1.1v1.9c1.3-0.2,2.8-0.2,4.2-0.2c1.4,0,2.8,0.1,4.1,0.2
	L-387.6,253.3L-387.6,253.3z M-388.9,262.2c0-1.6-1.3-2.8-2.8-2.8c-1.6,0-2.8,1.3-2.8,2.8c0,0.6,0.2,1.2,0.5,1.7
	c0.2-0.2,0.4-0.4,0.7-0.6l-0.5-0.8c-0.3-0.5,0.5-0.9,0.7-0.4l0.5,0.9c0.3-0.1,0.6-0.1,0.9-0.1c0.9,0,1.8,0.4,2.3,1.1
	C-389.1,263.3-388.9,262.8-388.9,262.2z M-393.4,264.4c0.5,0.4,1.1,0.6,1.7,0.6c0.6,0,1.2-0.2,1.7-0.6c-0.4-0.5-1-0.9-1.7-0.9
	C-392.4,263.5-393,263.9-393.4,264.4z M-388.1,262.2c0,2-1.6,3.7-3.7,3.7c-2,0-3.7-1.6-3.7-3.7c0-2,1.6-3.7,3.7-3.7
	C-389.7,258.5-388.1,260.1-388.1,262.2z M-381,270.4c0,0.8-0.6,1.4-1.4,1.4c-0.8,0-1.4-0.6-1.4-1.4c0-0.8,0.6-1.4,1.4-1.4
	S-381,269.6-381,270.4z M-381.7,270.4c0-0.4-0.4-0.8-0.8-0.8c-0.4,0-0.8,0.4-0.8,0.8c0,0.4,0.4,0.8,0.8,0.8
	C-382,271.2-381.7,270.8-381.7,270.4z M-400.3,270.4c0-0.4-0.4-0.8-0.8-0.8s-0.8,0.4-0.8,0.8c0,0.4,0.4,0.8,0.8,0.8
	S-400.3,270.8-400.3,270.4z M-399.7,270.4c0,0.8-0.6,1.4-1.4,1.4s-1.4-0.6-1.4-1.4c0-0.8,0.6-1.4,1.4-1.4
	C-400.3,269-399.7,269.6-399.7,270.4z M-395.6,270.4c0-0.4-0.4-0.8-0.8-0.8s-0.8,0.4-0.8,0.8c0,0.4,0.4,0.8,0.8,0.8
	S-395.6,270.8-395.6,270.4z M-395,270.4c0,0.8-0.6,1.4-1.4,1.4s-1.4-0.6-1.4-1.4c0-0.8,0.6-1.4,1.4-1.4
	C-395.6,269-395,269.6-395,270.4z M-386.3,270.4c0-0.4-0.4-0.8-0.8-0.8c-0.4,0-0.8,0.4-0.8,0.8c0,0.4,0.4,0.8,0.8,0.8
	C-386.7,271.2-386.3,270.8-386.3,270.4z M-385.7,270.4c0,0.8-0.6,1.4-1.4,1.4s-1.4-0.6-1.4-1.4c0-0.8,0.6-1.4,1.4-1.4
	C-386.3,269-385.7,269.6-385.7,270.4z M-397,245c0.9,0,1.7-0.7,1.7-1.7c0-0.9-0.7-1.7-1.7-1.7c-0.9,0-1.7,0.7-1.7,1.7
	C-398.6,244.3-397.9,245-397,245z M-397,245.9c-1.4,0-2.5-1.1-2.5-2.5c0-1.4,1.1-2.5,2.5-2.5c1.4,0,2.5,1.1,2.5,2.5
	C-394.5,244.7-395.6,245.9-397,245.9z M-397,244c-0.3,0-0.6-0.3-0.6-0.6c0-0.3,0.3-0.6,0.6-0.6c0.3,0,0.6,0.3,0.6,0.6
	C-396.3,243.7-396.6,244-397,244z M-386.6,245.9c-1.4,0-2.5-1.1-2.5-2.5c0-1.4,1.1-2.5,2.5-2.5s2.5,1.1,2.5,2.5
	C-384.1,244.7-385.2,245.9-386.6,245.9z M-386.6,245c0.9,0,1.7-0.7,1.7-1.7c0-0.9-0.7-1.7-1.7-1.7c-0.9,0-1.7,0.7-1.7,1.7
	C-388.3,244.3-387.6,245-386.6,245z M-386.6,244c-0.3,0-0.6-0.3-0.6-0.6c0-0.3,0.3-0.6,0.6-0.6c0.3,0,0.6,0.3,0.6,0.6
	C-386,243.7-386.3,244-386.6,244z M-389.4,307.5h10.2v-4.5h-10.2L-389.4,307.5L-389.4,307.5z M-378.8,308.4h-11.1h0h-0.7v1h12.5v-1
	H-378.8z M-389,302.2v-9.5c0-0.8,0.6-1.4,1.4-1.4h0.2c0.6,0,0.6,0.8,0,0.8h-0.2c-0.3,0-0.6,0.3-0.6,0.6v9.5h8l0-9.5
	c0-0.3-0.3-0.6-0.6-0.6h-0.3c-0.6,0-0.6-0.8,0-0.8h0.3c0.8,0,1.4,0.6,1.4,1.4l0,9.5h0.5c0.2,0,0.4,0.2,0.4,0.4v4.9h0.7
	c0.2,0,0.4,0.2,0.4,0.4v1.8c0,0.2-0.2,0.4-0.4,0.4H-391c-0.2,0-0.4-0.2-0.4-0.4v-1.8c0-0.2,0.2-0.4,0.4-0.4h0.8v-4.9
	c0-0.2,0.2-0.4,0.4-0.4L-389,302.2L-389,302.2z M-404.4,307.5h10.2v-4.5h-10.2V307.5L-404.4,307.5z M-393.7,308.4h-11.1h0h-0.7v1
	h12.5v-1H-393.7z M-403.9,302.2v-9.5c0-0.8,0.6-1.4,1.4-1.4h0.2c0.6,0,0.6,0.8,0,0.8h-0.2c-0.3,0-0.6,0.3-0.6,0.6v9.5h8l0-9.5
	c0-0.3-0.3-0.6-0.6-0.6h-0.3c-0.6,0-0.6-0.8,0-0.8h0.3c0.8,0,1.4,0.6,1.4,1.4l0,9.5h0.5c0.2,0,0.4,0.2,0.4,0.4v4.9h0.7
	c0.2,0,0.4,0.2,0.4,0.4v1.8c0,0.2-0.2,0.4-0.4,0.4H-406c-0.2,0-0.4-0.2-0.4-0.4v-1.8c0-0.2,0.2-0.4,0.4-0.4h0.8v-4.9
	c0-0.2,0.2-0.4,0.4-0.4L-403.9,302.2L-403.9,302.2z"/>
</svg>
